<?xml version="1.0" encoding="UTF-8" standalone="no"?>
<!-- Created with Inkscape (http://www.inkscape.org/) -->

<svg
   width="100"
   height="100"
   viewBox="0 0 26.458332 26.458332"
   version="1.1"
   id="svg5"
   inkscape:version="1.1 (c68e22c387, 2021-05-23)"
   sodipodi:docname="in.svg"
   xmlns:inkscape="http://www.inkscape.org/namespaces/inkscape"
   xmlns:sodipodi="http://sodipodi.sourceforge.net/DTD/sodipodi-0.dtd"
   xmlns="http://www.w3.org/2000/svg"
   xmlns:svg="http://www.w3.org/2000/svg">
  <sodipodi:namedview
     id="namedview7"
     pagecolor="#ffffff"
     bordercolor="#666666"
     borderopacity="1.0"
     inkscape:pageshadow="2"
     inkscape:pageopacity="0.0"
     inkscape:pagecheckerboard="0"
     inkscape:document-units="px"
     showgrid="false"
     width="300mm"
     units="px"
     inkscape:zoom="2"
     inkscape:cx="-95"
     inkscape:cy="-4.25"
     inkscape:window-width="1920"
     inkscape:window-height="1051"
     inkscape:window-x="-9"
     inkscape:window-y="-9"
     inkscape:window-maximized="1"
     inkscape:current-layer="g5662" />
  <defs
     id="defs2" />
  <g
     inkscape:label="Capa 1"
     inkscape:groupmode="layer"
     id="layer1">
    <g
       id="g5662"
       transform="matrix(1.1941151,0,0,1.1941151,48.888922,-13.204742)">
      <g
         id="g6624"
         transform="matrix(1.2113537,0,0,1.2113537,6.6052122,-37.270883)">
        <path
           style="fill:#000000;stroke-width:0.0709033"
           d="m -31.184821,58.074957 c -3.950154,-0.494117 -7.074967,-3.423315 -7.846191,-7.355014 -0.163307,-0.83254 -0.163488,-2.457871 -3.67e-4,-3.289347 1.132188,-5.771072 7.216676,-8.992412 12.559287,-6.649325 2.270095,0.995586 4.155773,3.05091 4.926952,5.370209 1.745868,5.250649 -1.486582,10.794873 -6.891518,11.820171 -0.736894,0.139787 -2.059159,0.189491 -2.748163,0.103306 z m -0.921845,-7.866213 v -2.836131 h -0.921743 -0.921742 v 2.836131 2.83613 h 0.921742 0.921743 z m 2.836526,1.223081 c 2.13e-4,-0.898859 0.03308,-1.730721 0.0742,-1.87882 0.105752,-0.380793 0.338592,-0.617384 0.68365,-0.694662 0.44703,-0.100115 0.786688,0.0372 0.972587,0.393206 0.136314,0.261043 0.150016,0.423267 0.172175,2.038469 l 0.02407,1.754856 h 0.88456 0.88456 l -0.02234,-2.180275 c -0.02175,-2.122807 -0.02681,-2.190158 -0.191757,-2.55519 -0.211251,-0.467501 -0.68112,-0.893104 -1.10338,-0.99943 -0.452426,-0.113922 -1.165383,-0.09745 -1.556972,0.03598 -0.185878,0.06334 -0.462767,0.23388 -0.615308,0.378989 l -0.277349,0.263836 v -0.308087 -0.308086 h -0.88629 -0.886291 v 2.836131 2.83613 h 0.921742 0.921743 l 4.25e-4,-1.613049 z m -3.201562,-4.962417 c 0.334531,-0.249763 0.46321,-0.491275 0.46321,-0.869377 0,-0.399912 -0.141404,-0.644391 -0.522873,-0.904017 -0.628254,-0.427586 -1.560593,0.08765 -1.560593,0.862431 0,0.843346 0.975911,1.392036 1.620256,0.910963 z"
           id="path6626" />
      </g>
    </g>
  </g>
</svg>
