<?xml version="1.0" encoding="UTF-8" standalone="no"?>
<!-- Created with Inkscape (http://www.inkscape.org/) -->

<svg
   width="62.10405"
   height="100.32733"
   viewBox="0 0 62.10405 100.32733"
   version="1.1"
   id="svg5"
   xml:space="preserve"
   inkscape:version="1.2.1 (9c6d41e410, 2022-07-14)"
   sodipodi:docname="point1.svg"
   xmlns:inkscape="http://www.inkscape.org/namespaces/inkscape"
   xmlns:sodipodi="http://sodipodi.sourceforge.net/DTD/sodipodi-0.dtd"
   xmlns:xlink="http://www.w3.org/1999/xlink"
   xmlns="http://www.w3.org/2000/svg"
   xmlns:svg="http://www.w3.org/2000/svg"><sodipodi:namedview
     id="namedview7"
     pagecolor="#505050"
     bordercolor="#eeeeee"
     borderopacity="1"
     inkscape:showpageshadow="0"
     inkscape:pageopacity="0"
     inkscape:pagecheckerboard="0"
     inkscape:deskcolor="#505050"
     inkscape:document-units="px"
     showgrid="false"
     inkscape:zoom="6.1094026"
     inkscape:cx="21.360517"
     inkscape:cy="51.805393"
     inkscape:window-width="1920"
     inkscape:window-height="1051"
     inkscape:window-x="-9"
     inkscape:window-y="-9"
     inkscape:window-maximized="1"
     inkscape:current-layer="text12093"
     inkscape:lockguides="false"
     showguides="true" /><defs
     id="defs2"><linearGradient
       inkscape:collect="always"
       id="linearGradient1375"><stop
         style="stop-color:#1a1a1a;stop-opacity:1;"
         offset="0"
         id="stop1371" /><stop
         style="stop-color:#1a1a1a;stop-opacity:0;"
         offset="1"
         id="stop1373" /></linearGradient><linearGradient
       id="linearGradient37280"
       inkscape:swatch="solid"><stop
         style="stop-color:#000000;stop-opacity:1;"
         offset="0"
         id="stop37278" /></linearGradient><linearGradient
       inkscape:collect="always"
       id="linearGradient35288"><stop
         style="stop-color:#000000;stop-opacity:1;"
         offset="0"
         id="stop35284" /><stop
         style="stop-color:#000000;stop-opacity:0;"
         offset="1"
         id="stop35286" /></linearGradient><linearGradient
       id="linearGradient31894"
       inkscape:swatch="gradient"><stop
         style="stop-color:#800000;stop-opacity:1;"
         offset="0"
         id="stop31890" /><stop
         style="stop-color:#800000;stop-opacity:0;"
         offset="1"
         id="stop31892" /></linearGradient><rect
       x="194.03181"
       y="341.18347"
       width="256.53873"
       height="285.18771"
       id="rect12095" /><rect
       x="78.133621"
       y="177.10287"
       width="690.1803"
       height="300.81445"
       id="rect4059" /><radialGradient
       inkscape:collect="always"
       xlink:href="#linearGradient35288"
       id="radialGradient35290"
       cx="206.94145"
       cy="365.65631"
       fx="206.94145"
       fy="365.65631"
       r="10.103558"
       gradientTransform="matrix(0.00482394,1.154897,-2.4999018,0.03207009,1120.048,114.93364)"
       gradientUnits="userSpaceOnUse" /><filter
       inkscape:collect="always"
       style="color-interpolation-filters:sRGB"
       id="filter1318"
       x="-0.20521664"
       y="-0.096718928"
       width="1.4099928"
       height="1.1934378"><feGaussianBlur
         inkscape:collect="always"
         stdDeviation="1.4520549"
         id="feGaussianBlur1320" /></filter><linearGradient
       inkscape:collect="always"
       xlink:href="#linearGradient1375"
       id="linearGradient1377"
       x1="192.807"
       y1="365.65629"
       x2="221.38339"
       y2="365.65629"
       gradientUnits="userSpaceOnUse" /></defs><g
     inkscape:label="Capa 1"
     inkscape:groupmode="layer"
     id="layer1"
     transform="translate(0,0.32733529)"><g
       inkscape:label="Capa 1"
       id="layer1-5"
       transform="matrix(1.0394237,0,0,0.80577687,-52.373664,-64.819083)"><text
         xml:space="preserve"
         transform="scale(0.26458333)"
         id="text4057"
         style="font-style:normal;font-variant:normal;font-weight:normal;font-stretch:normal;font-size:40px;line-height:1.25;font-family:'RobotoMono Nerd Font';-inkscape-font-specification:'RobotoMono Nerd Font';white-space:pre;shape-inside:url(#rect4059);display:inline;fill:#000000;fill-opacity:1;stroke:none" /><g
         aria-label="{"
         transform="matrix(2.9490583,0,0,2.7549477,-529.94262,-864.86912)"
         id="text12093"
         style="font-size:40px;line-height:1.25;white-space:pre;shape-inside:url(#rect12095)"><path
           style="font-family:'RobotoMono Nerd Font';-inkscape-font-specification:'RobotoMono Nerd Font';fill:url(#linearGradient1377);fill-opacity:1;stroke:url(#radialGradient35290);stroke-opacity:0.210909;filter:url(#filter1318)"
           sodipodi:type="inkscape:offset"
           inkscape:radius="3.0020976"
           inkscape:original="M 213.29492 347.79297 C 212.45531 347.81687 211.70051 347.94841 211.03125 348.1875 C 210.37415 348.42655 209.79036 348.74983 209.2793 349.15625 C 208.76823 349.56269 208.32988 350.03435 207.96484 350.57227 C 207.61195 351.11018 207.31909 351.68896 207.08789 352.31055 C 206.85669 352.92019 206.68765 353.55349 206.57812 354.21094 C 206.46866 354.85644 206.41406 355.49733 206.41406 356.13086 L 206.41406 359.17773 C 206.41406 360.91101 205.99391 362.16638 205.1543 362.94336 C 204.32685 363.70838 203.05558 364.0918 201.33984 364.0918 C 200.57237 364.90551 200.6253 366.03327 201.33984 366.69141 C 203.05558 366.70336 204.32685 367.09802 205.1543 367.875 C 205.99391 368.65199 206.41406 369.90173 206.41406 371.62305 L 206.41406 374.65234 C 206.41406 375.28589 206.47401 375.92482 206.5957 376.57031 C 206.71739 377.22777 206.90118 377.86302 207.14453 378.47266 C 207.40007 379.09424 207.70917 379.67303 208.07422 380.21094 C 208.45144 380.74886 208.89518 381.22051 209.40625 381.62695 C 209.91731 382.03337 210.4957 382.35662 211.14062 382.5957 C 211.78556 382.83475 212.50398 382.96623 213.29492 382.99023 C 214.52832 382.99123 214.62206 381.20914 213.67773 380.92773 C 212.92329 380.90382 212.29773 380.70087 211.79883 380.31836 C 211.3121 379.93584 210.91554 379.44535 210.61133 378.84766 C 210.31928 378.26193 210.11192 377.59854 209.99023 376.85742 C 209.86849 376.12826 209.80859 375.39347 209.80859 374.65234 L 209.80859 371.62305 C 209.79642 370.20057 209.45638 368.95083 208.78711 367.875 C 208.11784 366.78724 207.07755 365.96784 205.66602 365.41797 C 207.07755 364.85615 208.11784 364.0387 208.78711 362.96289 C 209.4564 361.87511 209.79639 360.61217 209.80859 359.17773 L 209.80859 356.13086 C 209.80859 355.4017 209.84497 354.6669 209.91797 353.92578 C 209.99099 353.18466 210.15464 352.52128 210.41016 351.93555 C 210.67786 351.33786 211.06705 350.84735 211.57812 350.46484 C 212.10136 350.08233 212.80161 349.87947 213.67773 349.85547 C 214.3026 349.87857 214.40495 347.79997 213.29492 347.79297 z "
           xlink:href="#path30741"
           id="path31035"
           inkscape:href="#path30741"
           d="m 212.66211,344.79102 a 3.0023978,3.0023978 0 0 0 -0.10547,0.002 c -1.10163,0.0314 -2.17332,0.20605 -3.1875,0.56836 a 3.0023978,3.0023978 0 0 0 -0.0156,0.006 c -0.93742,0.34103 -1.81993,0.82251 -2.59571,1.43945 -0.74212,0.59019 -1.39547,1.29286 -1.92969,2.08008 a 3.0023978,3.0023978 0 0 0 -0.0254,0.0391 c -0.4733,0.72146 -0.86709,1.49974 -1.17382,2.32031 -5.1e-4,0.001 -0.001,0.003 -0.002,0.004 -0.30184,0.79674 -0.51988,1.62001 -0.66015,2.45898 -0.13673,0.80625 -0.20703,1.61589 -0.20703,2.42188 v 3.04687 c 0,1.24662 -0.27337,1.5387 -0.29688,1.56055 -0.0699,0.0644 -0.50825,0.35156 -1.77539,0.35156 a 3.0023978,3.0023978 0 0 0 -2.18359,0.94141 c -1.76473,1.87105 -1.76683,5.10325 0.15039,6.86914 a 3.0023978,3.0023978 0 0 0 2.01172,0.79297 c 1.26573,0.009 1.70254,0.29719 1.78125,0.37109 a 3.0023978,3.0023978 0 0 0 0.0156,0.0137 c 0.0283,0.0261 0.29688,0.31213 0.29688,1.54493 v 3.02929 c 0,0.81966 0.0784,1.64459 0.23242,2.46485 3.7e-4,0.002 0.002,0.004 0.002,0.006 2.4e-4,0.001 -2.4e-4,0.003 0,0.004 0.15612,0.84003 0.3896,1.66375 0.70703,2.45899 a 3.0023978,3.0023978 0 0 0 0.0117,0.0273 c 0.33211,0.80783 0.74264,1.57301 1.22461,2.2832 a 3.0023978,3.0023978 0 0 0 0.0273,0.0391 c 0.53903,0.76865 1.18589,1.45725 1.91993,2.04101 0.76776,0.61056 1.6372,1.0913 2.56054,1.4336 0.98983,0.36689 2.03738,0.54766 3.10547,0.58007 a 3.0023978,3.0023978 0 0 0 0.0898,0.002 c 1.03132,8.3e-4 2.15759,-0.46564 2.86133,-1.18555 0.70374,-0.71991 1.02935,-1.56983 1.12891,-2.37305 0.19912,-1.60642 -0.58762,-3.739 -2.74805,-4.38281 a 3.0023978,3.0023978 0 0 0 -0.76172,-0.12305 c -0.24816,-0.008 -0.18768,-0.0222 -0.13671,0.008 -0.11873,-0.0964 -0.22441,-0.21106 -0.3418,-0.4375 -0.13979,-0.28245 -0.26275,-0.64551 -0.3418,-1.12696 a 3.0023978,3.0023978 0 0 0 -0.002,-0.008 c -0.0941,-0.5638 -0.14063,-1.13156 -0.14063,-1.71094 v -3.02929 a 3.0023978,3.0023978 0 0 0 0,-0.0254 c -0.0161,-1.88223 -0.49529,-3.72679 -1.4707,-5.29883 -0.20916,-0.33941 -0.53599,-0.57805 -0.79102,-0.88086 0.25333,-0.29936 0.57833,-0.53354 0.78711,-0.86914 a 3.0023978,3.0023978 0 0 0 0.008,-0.0137 c 0.97497,-1.58461 1.45069,-3.43826 1.46679,-5.33204 a 3.0023978,3.0023978 0 0 0 0,-0.0254 v -3.04687 c 0,-0.62933 0.0322,-1.26488 0.0957,-1.91016 0.0466,-0.47257 0.14276,-0.81445 0.25195,-1.06836 0.0656,-0.1434 0.11192,-0.19411 0.20508,-0.26562 -0.0854,0.0594 -0.0452,-0.0192 0.39648,-0.0312 h -0.19336 c 0.91011,0.0336 1.82362,-0.39403 2.33399,-0.85547 0.51036,-0.46144 0.74441,-0.91155 0.90625,-1.29883 0.32368,-0.77455 0.37186,-1.39366 0.32617,-2.06836 -0.0457,-0.6747 -0.19177,-1.41757 -0.76172,-2.23242 -0.56995,-0.81484 -1.84196,-1.60171 -3.05664,-1.60937 z"
           transform="matrix(0.92641595,0,0,1.0010647,15.218885,-0.38954347)" /><path
           d="m 213.29469,382.9902 c -0.79094,-0.024 -1.50887,-0.15541 -2.1538,-0.39446 -0.64492,-0.23908 -1.22293,-0.56182 -1.73399,-0.96824 -0.51107,-0.40644 -0.95522,-0.87859 -1.33244,-1.41651 -0.36505,-0.53791 -0.67535,-1.11767 -0.93089,-1.73925 -0.24335,-0.60964 -0.42588,-1.24317 -0.54757,-1.90063 -0.12169,-0.64549 -0.18252,-1.285 -0.18252,-1.91855 v -3.03023 c 0,-1.72132 -0.41982,-2.97048 -1.25943,-3.74747 -0.82745,-0.77698 -2.09905,-1.17144 -3.81479,-1.18339 -0.71454,-0.65814 -0.76747,-1.78621 0,-2.59992 1.71574,0 2.98734,-0.38252 3.81479,-1.14754 0.83961,-0.77698 1.25943,-2.03212 1.25943,-3.7654 v -3.04816 c 0,-0.63353 0.0548,-1.27305 0.16427,-1.91855 0.10952,-0.65745 0.27987,-1.29099 0.51107,-1.90063 0.2312,-0.62159 0.52324,-1.20133 0.87613,-1.73924 0.36504,-0.53792 0.80311,-1.01007 1.31418,-1.41651 0.51106,-0.40642 1.09515,-0.72918 1.75225,-0.96823 0.66926,-0.23909 1.4237,-0.37057 2.26331,-0.39447 1.11003,0.007 1.00818,2.08508 0.38331,2.06198 -0.87612,0.024 -1.57581,0.22714 -2.09905,0.60965 -0.51108,0.38251 -0.90047,0.8726 -1.16817,1.47029 -0.25552,0.58573 -0.4198,1.24916 -0.49282,1.99028 -0.073,0.74112 -0.10952,1.47627 -0.10952,2.20543 v 3.04816 c -0.0122,1.43444 -0.35285,2.69555 -1.02214,3.78333 -0.66927,1.07581 -1.70965,1.89464 -3.12118,2.45646 1.41153,0.54987 2.45191,1.3687 3.12118,2.45646 0.66927,1.07583 1.00997,2.32499 1.02214,3.74747 v 3.03023 c 0,0.74113 0.0608,1.47628 0.18254,2.20544 0.12169,0.74112 0.32854,1.40455 0.62059,1.99028 0.30421,0.59769 0.69968,1.08778 1.18641,1.4703 0.4989,0.38251 1.12558,0.58571 1.88002,0.60962 0.94433,0.28141 0.85009,2.063 -0.38331,2.062 z"
           style="font-family:'RobotoMono Nerd Font';-inkscape-font-specification:'RobotoMono Nerd Font';fill:#f9f9f9;stroke-width:0.926247"
           id="path30741"
           sodipodi:nodetypes="ccscccssccccsscccccccccsscccccsccccc" /></g></g></g></svg>
